<?xml version="1.0" encoding="UTF-8"?>
<svg xmlns="http://www.w3.org/2000/svg" viewBox="0 0 48 48">
  <path fill="#EA4335" d="M24 9.5c3.54 0 6.02 1.53 7.4 2.81l5.39-5.39C33.52 3.79 29.1 1.5 24 1.5 14.6 1.5 6.52 6.9 2.64 14.77l6.46 5.02C11 14.05 16.98 9.5 24 9.5z"/>
  <path fill="#4285F4" d="M46.5 24.5c0-1.59-.14-3.12-.4-4.6H24v8.72h12.63c-.54 2.92-2.18 5.39-4.63 7.05l7.08 5.5c4.14-3.83 6.42-9.46 6.42-16.67z"/>
  <path fill="#FBBC05" d="M9.1 28.33c-.5-1.48-.78-3.06-.78-4.68s.28-3.2.78-4.68l-6.46-5.02C1.6 16.93 1 20.17 1 23.65s.6 6.72 1.64 9.7l6.46-5.02z"/>
  <path fill="#34A853" d="M24 46.5c5.1 0 9.39-1.68 12.52-4.58l-7.08-5.5c-1.97 1.32-4.49 2.1-7.44 2.1-7.02 0-12.99-4.55-14.9-10.29l-6.46 5.02C6.52 41.1 14.6 46.5 24 46.5z"/>
  <path fill="none" d="M1 1.5h46v46H1z"/>
</svg>
